<?xml version="1.0" standalone="no"?>
<svg xmlns="http://www.w3.org/2000/svg" version="1.1" width="119" height="141">
<path d="M 66,129 L 67,130 L 67,131 L 68,132 L 68,133 L 68,132 L 69,131 L 68,132 L 67,131 L 67,130 Z" fill="black"/>
<path d="M 59,129 L 59,134 L 58,135 L 57,134 L 57,133 L 56,133 L 56,134 L 55,135 L 56,136 L 56,137 L 57,137 L 58,138 L 58,139 L 59,140 L 60,140 L 60,139 L 62,137 L 63,137 L 64,136 L 61,136 L 60,135 L 60,129 Z" fill="black"/>
<path d="M 52,129 L 52,130 L 51,131 L 51,133 L 51,132 L 52,131 Z" fill="black"/>
<path d="M 71,127 L 71,128 L 72,129 L 72,128 Z" fill="black"/>
<path d="M 48,127 L 46,129 L 46,130 L 46,129 Z" fill="black"/>
<path d="M 76,126 Z" fill="black"/>
<path d="M 42,126 L 42,127 L 43,126 Z" fill="black"/>
<path d="M 51,123 L 51,124 L 52,124 L 52,123 Z" fill="black"/>
<path d="M 77,122 L 76,123 L 71,123 L 70,124 L 77,124 Z" fill="black"/>
<path d="M 59,122 L 58,123 L 54,123 L 54,124 L 66,124 L 64,124 L 63,123 L 62,123 L 61,122 Z" fill="black"/>
<path d="M 72,115 L 72,120 L 73,121 L 75,121 L 75,120 L 73,120 L 72,119 Z" fill="black"/>
<path d="M 63,115 L 66,115 L 67,116 L 67,119 L 66,120 L 64,120 L 63,119 L 63,118 L 62,117 L 62,119 L 63,120 L 64,120 L 65,121 L 66,120 L 67,120 L 67,116 L 66,115 Z" fill="black"/>
<path d="M 53,115 L 53,116 L 52,117 L 52,119 L 53,120 L 54,120 L 55,121 L 56,120 L 57,120 L 58,119 L 58,117 L 57,116 L 57,115 Z" fill="black"/>
<path d="M 44,115 L 44,121 L 44,120 L 46,118 L 48,118 L 48,115 Z" fill="black"/>
<path d="M 39,113 L 39,120 L 40,121 L 39,122 L 39,124 L 42,124 L 42,123 L 41,122 L 41,114 L 40,113 Z" fill="black"/>
<path d="M 87,111 L 88,112 L 88,118 L 87,119 L 87,122 L 85,124 L 86,125 L 87,124 L 89,126 L 90,126 L 91,125 L 94,128 L 94,127 L 93,126 L 93,125 L 92,124 L 92,123 L 91,122 L 91,121 L 90,120 L 91,119 L 91,116 L 90,116 L 89,115 L 89,113 L 88,112 L 88,111 Z" fill="black"/>
<path d="M 72,111 Z" fill="black"/>
<path d="M 44,111 Z" fill="black"/>
<path d="M 30,111 L 29,112 L 29,122 L 28,123 L 27,122 L 27,116 L 26,115 L 27,114 L 27,112 L 26,113 L 25,113 L 24,114 L 23,113 L 23,114 L 25,116 L 26,116 L 27,117 L 27,120 L 26,121 L 26,123 L 25,124 L 25,126 L 24,127 L 24,128 L 26,126 L 29,126 L 30,125 L 31,125 L 31,124 L 30,123 Z" fill="black"/>
<path d="M 94,109 L 98,113 Z" fill="black"/>
<path d="M 73,109 Z" fill="black"/>
<path d="M 24,109 L 20,113 L 21,113 L 21,112 Z" fill="black"/>
<path d="M 91,108 L 90,109 L 86,109 L 89,109 L 90,110 L 90,111 L 91,112 L 91,114 L 92,113 L 93,114 L 93,115 L 94,114 L 94,113 L 93,113 L 92,112 L 91,112 L 90,111 L 90,109 L 91,108 L 92,108 Z" fill="black"/>
<path d="M 82,108 L 83,109 L 81,111 L 74,111 L 76,111 L 77,112 L 77,113 L 76,114 L 76,117 L 75,118 L 76,118 L 78,120 L 78,119 L 77,118 L 78,117 L 78,113 L 77,112 L 78,111 L 82,111 L 83,112 L 82,113 L 82,121 L 81,122 L 81,125 L 83,125 L 83,122 L 82,121 L 82,120 L 83,119 L 82,118 L 82,116 L 83,115 L 83,112 L 82,111 L 83,110 L 83,109 Z" fill="black"/>
<path d="M 36,108 L 35,109 L 35,110 L 36,111 L 35,112 L 34,112 L 34,125 L 37,125 L 37,124 L 36,124 L 35,123 L 35,118 L 36,117 L 35,116 L 35,112 L 36,111 L 42,111 L 37,111 L 35,109 Z" fill="black"/>
<path d="M 27,108 Z" fill="black"/>
<path d="M 72,107 Z" fill="black"/>
<path d="M 95,104 L 95,105 L 96,104 L 97,105 L 97,106 L 101,110 L 102,110 L 103,111 L 104,111 L 103,111 L 96,104 Z" fill="black"/>
<path d="M 83,104 Z" fill="black"/>
<path d="M 22,104 L 15,111 L 14,111 L 15,112 L 22,105 L 23,105 L 23,104 Z" fill="black"/>
<path d="M 100,102 L 102,104 L 103,104 L 106,107 L 107,107 L 108,108 L 107,107 L 106,107 L 103,104 L 102,104 Z" fill="black"/>
<path d="M 96,101 Z" fill="black"/>
<path d="M 88,101 L 87,102 L 86,102 L 85,103 L 86,103 L 88,101 L 89,102 L 90,102 L 91,103 L 92,103 L 91,103 L 90,102 L 89,102 Z" fill="black"/>
<path d="M 83,101 Z" fill="black"/>
<path d="M 19,101 L 16,104 L 15,104 L 12,107 L 11,107 L 11,108 L 13,106 L 14,106 Z" fill="black"/>
<path d="M 98,100 Z" fill="black"/>
<path d="M 25,95 Z" fill="black"/>
<path d="M 11,95 L 10,96 L 9,96 L 8,97 L 7,97 L 6,98 L 5,98 L 4,99 L 3,99 L 1,101 L 1,103 L 0,104 L 2,104 L 3,103 L 4,103 L 5,102 L 6,102 L 8,100 L 9,100 L 10,99 L 11,99 L 12,98 L 13,98 L 14,97 L 13,97 L 12,98 L 11,97 L 11,96 L 12,95 Z" fill="black"/>
<path d="M 105,94 L 107,96 L 108,96 L 109,97 L 108,98 L 106,98 L 105,97 L 104,97 L 103,96 L 103,95 L 103,96 L 101,98 L 103,96 L 104,97 L 105,97 L 107,99 L 108,99 L 109,100 L 110,100 L 111,101 L 112,101 L 113,102 L 114,102 L 116,104 L 117,104 L 117,102 L 116,101 L 116,100 L 115,99 L 114,99 L 113,98 L 112,98 L 111,97 L 110,97 L 109,96 L 108,96 L 107,95 L 106,95 Z" fill="black"/>
<path d="M 106,92 Z" fill="black"/>
<path d="M 27,92 Z" fill="black"/>
<path d="M 87,91 Z" fill="black"/>
<path d="M 84,91 L 85,92 Z" fill="black"/>
<path d="M 63,91 L 61,93 L 60,92 L 58,92 L 56,94 L 56,95 L 55,96 L 55,97 L 56,98 L 56,100 L 56,99 L 57,98 L 58,99 L 60,99 L 58,99 L 57,98 L 57,97 L 58,96 L 60,96 L 60,95 L 61,94 L 62,95 L 63,94 Z" fill="black"/>
<path d="M 24,91 L 24,92 L 25,91 Z" fill="black"/>
<path d="M 9,90 L 10,90 L 11,91 L 15,91 L 17,93 L 18,93 L 19,94 L 21,94 L 22,95 L 23,95 L 22,95 L 21,94 L 19,94 L 18,93 L 17,93 L 16,92 L 16,91 L 14,91 L 13,90 Z" fill="black"/>
<path d="M 106,89 L 108,91 L 109,91 L 110,92 L 112,92 L 113,93 L 114,93 L 115,94 L 114,93 L 114,91 L 111,91 L 110,90 L 109,90 L 108,89 Z" fill="black"/>
<path d="M 86,89 Z" fill="black"/>
<path d="M 69,89 L 71,89 Z" fill="black"/>
<path d="M 90,88 L 91,89 L 92,89 L 91,89 Z" fill="black"/>
<path d="M 88,88 L 88,89 Z" fill="black"/>
<path d="M 4,87 L 3,88 L 2,88 L 2,89 L 4,91 L 4,92 L 3,93 L 3,94 L 4,93 L 5,93 L 6,92 L 6,91 L 5,91 L 4,90 L 3,90 L 2,89 L 3,88 L 4,88 L 5,87 Z" fill="black"/>
<path d="M 109,86 L 110,86 L 111,87 L 113,87 L 114,88 L 115,88 L 116,89 L 116,88 L 115,88 L 114,87 L 112,87 L 111,86 Z" fill="black"/>
<path d="M 99,86 Z" fill="black"/>
<path d="M 66,85 L 65,86 L 60,86 L 59,87 L 58,86 L 58,87 L 63,87 L 65,89 L 65,91 L 66,92 L 65,93 L 65,94 L 66,93 L 68,93 L 69,92 L 71,92 L 72,93 L 72,94 L 73,93 L 74,93 L 75,94 L 75,95 L 77,95 L 79,93 L 79,92 L 76,92 L 74,90 L 74,89 L 77,86 L 78,87 L 78,88 L 77,89 L 77,90 L 77,89 L 78,88 L 79,89 L 80,88 L 80,86 L 79,87 L 78,87 L 77,86 L 76,86 L 74,88 L 74,92 L 73,93 L 72,92 L 72,91 L 71,92 L 70,91 L 68,91 L 67,90 L 67,85 Z" fill="black"/>
<path d="M 4,82 L 3,83 L 4,83 L 5,82 Z" fill="black"/>
<path d="M 110,81 L 111,82 L 113,82 L 114,83 L 115,83 L 114,82 L 114,81 L 113,82 L 112,81 Z" fill="black"/>
<path d="M 95,81 L 94,82 L 91,82 L 90,83 L 90,84 L 91,85 L 92,85 L 95,82 Z" fill="black"/>
<path d="M 78,80 L 77,81 L 75,81 L 76,81 L 77,82 L 78,82 L 79,81 L 81,81 L 82,82 L 82,88 L 84,86 L 85,87 L 86,86 L 88,86 L 88,85 L 86,83 L 85,84 L 83,82 L 83,81 L 84,80 L 83,80 L 82,81 L 80,81 L 79,80 Z" fill="black"/>
<path d="M 21,80 L 22,81 Z" fill="black"/>
<path d="M 16,80 L 17,80 Z" fill="black"/>
<path d="M 107,79 L 107,80 L 105,82 L 105,83 L 103,85 L 102,84 L 101,85 L 102,84 L 103,85 L 103,86 L 101,88 L 100,88 L 99,89 L 98,89 L 97,90 L 95,90 L 94,91 L 92,91 L 91,92 L 89,92 L 88,93 L 87,93 L 86,94 L 84,94 L 83,95 L 82,95 L 81,96 L 79,96 L 78,97 L 76,97 L 75,98 L 73,98 L 72,99 L 71,99 L 70,98 L 72,96 L 70,98 L 69,98 L 67,96 L 68,95 L 70,95 L 68,95 L 67,96 L 70,99 L 69,100 L 68,100 L 67,101 L 65,101 L 64,102 L 62,102 L 61,101 L 62,100 L 62,99 L 63,98 L 62,98 L 62,100 L 61,101 L 60,101 L 59,102 L 54,102 L 53,101 L 50,101 L 47,98 L 47,96 L 48,95 L 49,95 L 50,96 L 50,98 L 51,97 L 52,97 L 53,96 L 53,93 L 52,93 L 51,92 L 51,91 L 52,90 L 53,90 L 53,89 L 52,90 L 51,90 L 51,92 L 50,93 L 49,92 L 50,93 L 48,95 L 47,94 L 47,91 L 51,87 L 52,87 L 53,86 L 54,86 L 55,85 L 54,85 L 53,86 L 51,86 L 49,88 L 48,87 L 47,87 L 47,88 L 46,89 L 45,89 L 44,90 L 40,90 L 40,91 L 41,90 L 43,90 L 44,91 L 42,93 L 39,93 L 41,93 L 42,94 L 45,94 L 46,95 L 45,96 L 44,96 L 43,97 L 41,97 L 40,96 L 41,97 L 44,97 L 45,98 L 45,99 L 46,98 L 47,99 L 48,99 L 50,101 L 52,101 L 53,102 L 56,102 L 57,103 L 62,103 L 63,102 L 65,102 L 66,101 L 67,101 L 68,100 L 70,100 L 71,99 L 73,99 L 74,98 L 75,98 L 76,97 L 78,97 L 79,96 L 81,96 L 82,95 L 83,95 L 84,94 L 86,94 L 87,93 L 89,93 L 90,92 L 92,92 L 93,91 L 95,91 L 96,90 L 97,90 L 98,89 L 100,89 L 105,84 L 105,83 L 106,82 L 106,81 L 107,80 Z" fill="black"/>
<path d="M 75,78 L 74,79 L 71,79 L 70,80 L 68,80 L 67,81 L 65,81 L 64,82 L 62,82 L 61,83 L 59,83 L 58,84 L 57,84 L 58,84 L 59,83 L 61,83 L 62,82 L 64,82 L 65,81 L 67,81 L 68,80 L 71,80 L 72,79 L 74,79 L 75,78 L 76,78 Z" fill="black"/>
<path d="M 115,77 L 116,78 L 117,78 L 116,77 Z" fill="black"/>
<path d="M 113,77 Z" fill="black"/>
<path d="M 78,77 L 78,78 L 79,77 L 80,77 Z" fill="black"/>
<path d="M 101,76 Z" fill="black"/>
<path d="M 93,76 L 94,76 L 95,77 L 95,78 L 95,77 L 96,76 L 97,77 L 97,81 L 98,82 L 97,83 L 98,82 L 97,81 L 98,80 L 100,80 L 101,81 L 102,80 L 100,80 L 99,79 L 100,78 L 99,79 L 97,77 L 98,76 Z" fill="black"/>
<path d="M 82,76 L 84,76 Z" fill="black"/>
<path d="M 86,75 Z" fill="black"/>
<path d="M 90,74 Z" fill="black"/>
<path d="M 94,73 Z" fill="black"/>
<path d="M 97,72 Z" fill="black"/>
<path d="M 99,71 Z" fill="black"/>
<path d="M 106,70 L 104,72 L 105,73 L 105,74 L 104,75 L 104,77 L 105,78 L 104,79 L 106,77 L 107,77 L 108,76 L 108,75 L 108,76 L 107,77 L 106,77 L 105,78 L 104,77 L 104,75 L 105,74 L 106,74 L 105,73 L 105,72 L 107,70 L 108,70 Z" fill="black"/>
<path d="M 112,68 L 112,69 L 111,70 L 110,70 L 117,70 L 115,68 Z" fill="black"/>
<path d="M 12,67 Z" fill="black"/>
<path d="M 3,67 L 1,69 L 1,71 L 2,70 L 7,70 L 5,68 L 4,68 Z" fill="black"/>
<path d="M 19,63 L 18,64 L 18,65 L 18,64 Z" fill="black"/>
<path d="M 101,61 L 101,62 Z" fill="black"/>
<path d="M 17,61 L 17,62 Z" fill="black"/>
<path d="M 22,59 L 20,61 Z" fill="black"/>
<path d="M 114,57 L 115,57 Z" fill="black"/>
<path d="M 103,57 L 103,58 L 102,59 L 103,58 Z" fill="black"/>
<path d="M 85,57 L 87,57 Z" fill="black"/>
<path d="M 77,57 Z" fill="black"/>
<path d="M 105,56 L 106,57 L 106,59 L 107,60 L 107,63 L 106,64 L 106,66 L 106,65 L 107,64 L 108,65 L 108,66 L 108,65 L 109,64 L 112,64 L 109,64 L 108,63 L 109,62 L 113,62 L 114,63 L 116,63 L 115,63 L 114,62 L 114,60 L 113,61 L 111,61 L 110,62 L 108,62 L 107,61 L 107,59 L 108,58 L 112,58 L 107,58 L 106,57 L 106,56 Z" fill="black"/>
<path d="M 112,48 Z" fill="black"/>
<path d="M 114,47 Z" fill="black"/>
<path d="M 10,45 Z" fill="black"/>
<path d="M 116,39 L 115,40 Z" fill="black"/>
<path d="M 55,0 L 55,1 L 53,3 L 52,3 L 49,6 L 48,6 L 48,8 L 47,9 L 47,10 L 46,11 L 44,11 L 43,12 L 44,13 L 44,14 L 45,15 L 45,16 L 46,17 L 46,18 L 47,19 L 47,20 L 46,21 L 45,21 L 44,20 L 44,19 L 43,18 L 43,17 L 42,16 L 42,15 L 39,18 L 38,18 L 37,17 L 37,19 L 38,20 L 38,21 L 39,22 L 39,23 L 38,24 L 37,24 L 35,22 L 35,21 L 34,20 L 31,20 L 30,19 L 30,21 L 28,23 L 28,24 L 30,26 L 30,27 L 31,28 L 29,30 L 26,27 L 26,26 L 24,24 L 24,26 L 23,27 L 22,27 L 22,28 L 21,29 L 20,28 L 20,29 L 23,32 L 23,35 L 22,36 L 15,29 L 15,32 L 14,33 L 13,33 L 12,34 L 11,33 L 16,38 L 17,38 L 18,39 L 18,40 L 16,42 L 13,39 L 12,39 L 10,37 L 9,37 L 7,35 L 6,35 L 5,34 L 4,35 L 1,35 L 1,37 L 2,38 L 2,40 L 4,42 L 6,42 L 7,43 L 8,43 L 9,42 L 10,42 L 12,44 L 13,44 L 15,46 L 16,46 L 17,47 L 15,49 L 14,49 L 13,48 L 13,50 L 12,51 L 11,50 L 10,50 L 9,49 L 8,49 L 7,48 L 6,48 L 5,47 L 4,47 L 5,48 L 7,48 L 8,49 L 9,49 L 10,50 L 11,50 L 12,51 L 13,51 L 15,53 L 15,54 L 14,55 L 12,53 L 10,53 L 9,52 L 8,52 L 7,51 L 6,51 L 5,50 L 4,51 L 5,52 L 4,53 L 3,53 L 2,52 L 1,52 L 2,53 L 4,53 L 5,54 L 7,54 L 8,55 L 10,55 L 12,57 L 11,58 L 6,58 L 5,57 L 3,57 L 4,57 L 5,58 L 10,58 L 11,59 L 11,61 L 10,62 L 7,62 L 6,61 L 5,61 L 4,60 L 4,61 L 2,63 L 4,63 L 5,64 L 9,64 L 10,65 L 10,68 L 10,66 L 11,65 L 11,58 L 12,57 L 14,57 L 16,59 L 15,58 L 15,50 L 16,49 L 16,48 L 18,46 L 20,48 L 20,50 L 21,51 L 21,53 L 22,54 L 24,52 L 25,53 L 24,52 L 26,50 L 27,50 L 28,49 L 29,50 L 29,52 L 27,54 L 27,55 L 24,58 L 25,59 L 25,61 L 24,62 L 24,63 L 20,67 L 14,67 L 14,68 L 16,68 L 17,69 L 16,70 L 10,70 L 8,72 L 8,73 L 10,75 L 9,76 L 6,76 L 4,78 L 3,78 L 2,77 L 1,78 L 3,78 L 4,79 L 8,79 L 9,80 L 12,80 L 13,79 L 13,78 L 16,75 L 17,75 L 19,77 L 21,77 L 22,76 L 23,77 L 25,77 L 26,78 L 30,78 L 31,79 L 33,79 L 33,76 L 34,75 L 33,74 L 35,72 L 36,73 L 36,78 L 38,80 L 38,82 L 36,84 L 35,83 L 34,83 L 33,82 L 28,82 L 27,81 L 26,82 L 25,81 L 25,83 L 23,85 L 23,87 L 22,88 L 21,87 L 21,86 L 20,86 L 19,85 L 17,87 L 15,85 L 15,84 L 16,83 L 17,83 L 12,83 L 11,82 L 10,83 L 9,83 L 8,82 L 8,84 L 11,84 L 12,85 L 13,85 L 14,86 L 13,87 L 11,87 L 10,86 L 8,86 L 7,87 L 8,88 L 9,87 L 10,87 L 11,88 L 14,88 L 15,89 L 15,88 L 16,87 L 17,88 L 17,89 L 18,89 L 17,88 L 17,87 L 18,86 L 19,87 L 21,87 L 23,89 L 29,89 L 30,90 L 34,90 L 35,91 L 38,91 L 38,89 L 37,89 L 35,87 L 36,86 L 40,86 L 41,87 L 42,87 L 43,86 L 44,87 L 48,83 L 51,83 L 52,82 L 55,82 L 56,81 L 58,81 L 59,80 L 62,80 L 63,79 L 65,79 L 66,78 L 68,78 L 69,77 L 72,77 L 73,76 L 76,76 L 77,75 L 79,75 L 80,74 L 83,74 L 84,73 L 86,73 L 87,72 L 89,72 L 90,71 L 93,71 L 94,70 L 97,70 L 98,69 L 100,69 L 101,68 L 103,68 L 104,69 L 103,70 L 102,70 L 103,70 L 105,68 L 106,68 L 105,68 L 104,67 L 103,67 L 102,66 L 101,66 L 100,65 L 99,65 L 98,64 L 96,64 L 94,62 L 92,62 L 91,61 L 92,60 L 91,59 L 89,59 L 90,60 L 89,61 L 88,61 L 87,60 L 85,60 L 84,59 L 83,60 L 82,59 L 81,60 L 80,60 L 79,61 L 75,61 L 74,62 L 70,62 L 69,61 L 66,61 L 65,60 L 66,59 L 70,59 L 71,60 L 73,60 L 71,60 L 70,59 L 71,58 L 73,58 L 73,57 L 76,54 L 77,54 L 77,53 L 78,52 L 79,53 L 79,52 L 80,51 L 80,50 L 81,49 L 84,49 L 85,50 L 85,51 L 87,51 L 88,50 L 89,50 L 90,51 L 117,51 L 117,50 L 111,50 L 110,49 L 109,49 L 108,50 L 106,50 L 105,49 L 104,49 L 103,50 L 102,49 L 102,48 L 101,47 L 103,45 L 104,45 L 106,43 L 107,43 L 109,41 L 110,41 L 112,39 L 113,39 L 115,37 L 116,37 L 117,36 L 117,35 L 114,35 L 113,34 L 112,34 L 110,36 L 109,36 L 106,39 L 105,39 L 102,42 L 101,42 L 99,40 L 102,37 L 103,37 L 106,34 L 106,33 L 104,33 L 103,32 L 103,30 L 102,30 L 96,36 L 94,34 L 94,33 L 97,30 L 97,29 L 98,28 L 97,29 L 93,25 L 94,24 L 91,27 L 91,28 L 89,30 L 88,30 L 86,28 L 88,26 L 88,25 L 89,24 L 89,22 L 89,23 L 87,25 L 87,26 L 85,28 L 84,27 L 84,26 L 85,25 L 85,24 L 87,22 L 87,21 L 88,20 L 83,20 L 83,21 L 82,22 L 82,23 L 80,25 L 78,23 L 79,22 L 79,21 L 80,20 L 80,19 L 81,18 L 79,18 L 78,17 L 77,17 L 76,16 L 76,15 L 75,16 L 75,17 L 74,18 L 74,19 L 72,21 L 71,21 L 70,20 L 71,19 L 71,18 L 72,17 L 72,16 L 73,15 L 73,13 L 74,12 L 74,11 L 71,11 L 70,10 L 70,6 L 64,0 Z" fill="black"/>
</svg>
