<?xml version="1.0" standalone="no"?>
<svg xmlns="http://www.w3.org/2000/svg" version="1.1" width="150" height="156">
<path d="M 97,146 L 98,146 Z" fill="black"/>
<path d="M 46,145 Z" fill="black"/>
<path d="M 86,141 Z" fill="black"/>
<path d="M 106,140 Z" fill="black"/>
<path d="M 56,140 L 71,155 Z" fill="black"/>
<path d="M 34,140 L 34,141 L 35,141 L 36,140 L 35,141 Z" fill="black"/>
<path d="M 79,139 L 78,140 L 77,140 L 78,140 Z" fill="black"/>
<path d="M 80,137 L 81,137 Z" fill="black"/>
<path d="M 116,135 Z" fill="black"/>
<path d="M 91,135 L 93,135 Z" fill="black"/>
<path d="M 83,135 L 83,136 Z" fill="black"/>
<path d="M 51,134 L 51,135 L 52,135 Z" fill="black"/>
<path d="M 74,131 L 74,132 Z" fill="black"/>
<path d="M 46,129 L 45,130 Z" fill="black"/>
<path d="M 74,128 L 74,129 Z" fill="black"/>
<path d="M 31,128 Z" fill="black"/>
<path d="M 53,127 Z" fill="black"/>
<path d="M 129,126 Z" fill="black"/>
<path d="M 79,125 L 80,125 L 81,126 L 81,134 L 81,132 L 82,131 L 83,132 L 83,131 L 81,129 L 81,126 L 82,125 L 83,125 Z" fill="black"/>
<path d="M 60,125 L 62,125 L 63,126 L 63,137 L 64,137 L 64,136 L 63,135 L 63,132 L 64,131 L 64,130 L 63,129 L 63,126 L 64,125 L 65,125 Z" fill="black"/>
<path d="M 52,125 Z" fill="black"/>
<path d="M 50,125 L 49,126 L 47,126 L 50,126 Z" fill="black"/>
<path d="M 106,122 Z" fill="black"/>
<path d="M 96,121 Z" fill="black"/>
<path d="M 42,119 L 42,121 Z" fill="black"/>
<path d="M 119,117 Z" fill="black"/>
<path d="M 113,117 L 112,118 L 110,118 L 116,118 L 117,117 L 116,118 L 115,118 L 114,117 Z" fill="black"/>
<path d="M 108,117 Z" fill="black"/>
<path d="M 24,117 Z" fill="black"/>
<path d="M 88,116 L 89,117 L 89,116 Z" fill="black"/>
<path d="M 66,116 L 64,118 L 70,118 L 71,119 L 71,122 L 72,123 L 72,129 L 71,130 L 71,132 L 72,133 L 71,134 L 72,135 L 72,140 L 72,122 L 73,121 L 72,120 L 74,118 L 76,118 L 77,119 L 78,118 L 80,118 L 82,120 L 78,116 Z" fill="black"/>
<path d="M 46,115 L 45,116 L 41,116 L 40,117 L 42,117 L 43,116 L 44,116 L 45,117 L 46,116 L 54,116 L 55,117 L 54,118 L 56,116 L 56,115 L 55,116 L 54,115 Z" fill="black"/>
<path d="M 136,114 L 137,115 L 138,115 L 137,115 Z" fill="black"/>
<path d="M 38,114 Z" fill="black"/>
<path d="M 125,113 Z" fill="black"/>
<path d="M 64,113 L 57,120 L 57,125 L 57,121 L 65,113 L 79,113 L 86,120 L 86,121 L 87,122 L 87,139 L 87,121 L 85,119 L 85,118 L 84,118 L 83,117 L 83,116 L 82,115 L 81,115 L 79,113 Z" fill="black"/>
<path d="M 123,110 Z" fill="black"/>
<path d="M 15,110 Z" fill="black"/>
<path d="M 10,110 L 11,110 Z" fill="black"/>
<path d="M 31,109 L 31,111 L 32,112 L 32,118 L 34,118 L 33,117 L 33,110 L 32,109 Z" fill="black"/>
<path d="M 29,108 Z" fill="black"/>
<path d="M 23,108 Z" fill="black"/>
<path d="M 117,107 L 119,107 Z" fill="black"/>
<path d="M 132,106 L 132,108 L 131,109 L 131,110 L 131,109 L 132,108 Z" fill="black"/>
<path d="M 106,106 L 100,112 L 100,113 L 98,115 L 98,116 L 97,117 L 97,119 L 98,118 L 99,118 L 100,117 L 100,116 L 101,115 L 100,114 L 100,113 L 101,112 L 101,111 L 104,108 L 105,108 L 106,107 Z" fill="black"/>
<path d="M 32,106 L 32,107 Z" fill="black"/>
<path d="M 141,103 L 142,103 Z" fill="black"/>
<path d="M 61,103 Z" fill="black"/>
<path d="M 115,102 L 115,105 Z" fill="black"/>
<path d="M 50,102 L 51,103 L 53,103 L 54,104 L 59,104 L 54,104 L 53,103 L 51,103 Z" fill="black"/>
<path d="M 20,102 L 21,102 Z" fill="black"/>
<path d="M 9,99 Z" fill="black"/>
<path d="M 70,96 L 65,101 L 64,101 L 63,102 L 64,101 L 65,101 Z" fill="black"/>
<path d="M 27,96 L 28,96 L 29,97 L 30,97 L 31,98 L 32,98 L 33,99 L 34,99 L 43,108 L 44,108 L 45,109 L 44,108 L 44,107 L 37,100 L 36,100 L 35,99 L 33,99 L 31,97 L 29,97 L 28,96 Z" fill="black"/>
<path d="M 123,95 Z" fill="black"/>
<path d="M 52,95 Z" fill="black"/>
<path d="M 25,95 Z" fill="black"/>
<path d="M 71,94 Z" fill="black"/>
<path d="M 127,93 L 126,94 Z" fill="black"/>
<path d="M 72,92 Z" fill="black"/>
<path d="M 63,92 L 64,93 L 64,94 L 65,95 L 66,95 Z" fill="black"/>
<path d="M 72,90 Z" fill="black"/>
<path d="M 62,90 Z" fill="black"/>
<path d="M 133,89 L 132,90 Z" fill="black"/>
<path d="M 72,88 L 73,88 Z" fill="black"/>
<path d="M 57,88 L 58,89 L 58,88 Z" fill="black"/>
<path d="M 41,88 L 42,89 L 45,89 L 46,90 L 49,90 L 51,92 L 52,91 L 54,93 L 54,96 L 54,92 L 53,91 L 50,91 L 49,90 L 48,90 L 47,89 L 45,89 L 44,88 L 43,89 L 42,88 Z" fill="black"/>
<path d="M 142,87 L 145,90 L 145,89 L 144,88 L 143,88 Z" fill="black"/>
<path d="M 136,86 L 137,86 Z" fill="black"/>
<path d="M 72,85 L 72,86 L 73,85 Z" fill="black"/>
<path d="M 46,85 L 49,88 L 51,88 L 50,88 L 48,86 L 47,86 Z" fill="black"/>
<path d="M 7,85 L 6,86 L 5,86 L 6,86 L 7,85 L 8,85 Z" fill="black"/>
<path d="M 67,83 L 66,84 L 65,84 L 65,85 L 66,86 L 66,88 L 65,89 L 66,88 L 67,88 L 67,86 L 68,85 L 69,86 L 69,89 L 68,90 L 67,90 L 67,91 L 66,92 L 65,91 L 66,92 L 69,89 L 69,85 L 68,84 L 68,83 Z" fill="black"/>
<path d="M 20,83 L 20,84 L 19,85 L 19,86 L 18,87 L 18,88 L 17,89 L 17,92 L 16,93 L 16,94 L 17,95 L 17,97 L 17,94 L 18,93 L 18,91 L 19,90 L 19,88 L 20,87 Z" fill="black"/>
<path d="M 133,82 L 135,84 L 136,84 L 134,82 Z" fill="black"/>
<path d="M 62,82 Z" fill="black"/>
<path d="M 58,82 L 58,83 L 59,83 Z" fill="black"/>
<path d="M 128,81 L 127,82 Z" fill="black"/>
<path d="M 119,80 L 119,83 L 118,84 L 118,86 L 116,88 L 116,89 L 115,90 L 114,90 L 115,90 L 117,88 L 117,87 L 118,86 L 118,85 L 119,84 Z" fill="black"/>
<path d="M 49,79 L 49,80 L 57,80 L 57,79 L 52,79 L 51,80 L 50,80 Z" fill="black"/>
<path d="M 46,79 L 45,80 L 44,80 L 47,80 L 47,79 Z" fill="black"/>
<path d="M 17,78 L 18,79 L 18,80 L 19,80 Z" fill="black"/>
<path d="M 145,77 L 146,78 L 148,78 L 147,77 Z" fill="black"/>
<path d="M 42,75 L 46,75 Z" fill="black"/>
<path d="M 4,75 L 6,75 Z" fill="black"/>
<path d="M 135,74 L 137,74 Z" fill="black"/>
<path d="M 127,71 Z" fill="black"/>
<path d="M 40,71 L 46,71 Z" fill="black"/>
<path d="M 37,70 Z" fill="black"/>
<path d="M 11,69 Z" fill="black"/>
<path d="M 73,68 L 75,68 Z" fill="black"/>
<path d="M 51,68 Z" fill="black"/>
<path d="M 112,67 L 110,69 L 94,69 L 93,70 L 77,70 L 76,71 L 73,71 L 72,72 L 64,72 L 63,71 L 62,71 L 61,72 L 59,72 L 58,71 L 57,72 L 56,72 L 55,71 L 53,71 L 52,72 L 51,72 L 50,71 L 49,72 L 48,72 L 58,72 L 59,73 L 60,73 L 61,72 L 62,72 L 63,73 L 65,73 L 69,77 L 69,78 L 70,79 L 70,80 L 71,81 L 76,81 L 77,80 L 79,80 L 78,79 L 78,78 L 77,77 L 77,76 L 78,75 L 80,77 L 80,78 L 81,79 L 81,80 L 93,80 L 94,79 L 104,79 L 105,78 L 110,78 L 111,77 L 114,77 L 115,76 L 115,75 L 114,74 L 113,74 L 115,76 L 114,77 L 113,77 L 109,73 L 108,73 L 107,72 L 106,72 L 105,71 L 104,71 L 103,70 L 104,69 L 113,69 L 114,70 L 115,70 L 118,73 L 118,75 L 119,75 L 120,74 L 123,74 L 121,72 L 121,71 L 120,71 L 119,70 L 118,70 L 117,69 L 113,69 L 112,68 Z" fill="black"/>
<path d="M 83,67 L 82,68 L 80,68 L 83,68 L 84,67 L 85,67 Z" fill="black"/>
<path d="M 145,66 L 144,67 L 142,67 L 142,69 L 143,68 L 144,68 L 145,67 L 147,67 L 147,66 Z" fill="black"/>
<path d="M 137,66 L 138,67 L 138,68 L 139,69 L 139,73 L 140,74 L 140,80 L 138,82 L 138,83 L 139,84 L 139,83 L 140,82 L 140,81 L 141,80 L 141,72 L 140,71 L 140,70 L 139,69 L 139,68 Z" fill="black"/>
<path d="M 23,66 L 23,67 Z" fill="black"/>
<path d="M 110,64 L 109,65 L 110,65 L 111,64 L 114,64 L 115,65 L 116,65 L 115,64 Z" fill="black"/>
<path d="M 100,64 L 100,66 L 101,66 L 100,65 Z" fill="black"/>
<path d="M 5,64 Z" fill="black"/>
<path d="M 122,63 Z" fill="black"/>
<path d="M 49,62 Z" fill="black"/>
<path d="M 28,62 L 28,63 Z" fill="black"/>
<path d="M 69,61 Z" fill="black"/>
<path d="M 65,60 L 65,61 L 66,62 L 66,63 L 68,65 L 69,65 L 70,66 L 75,66 L 78,63 L 78,62 L 79,61 L 78,62 L 77,62 L 75,64 L 72,64 L 71,65 L 68,65 L 66,63 L 67,62 Z" fill="black"/>
<path d="M 27,59 Z" fill="black"/>
<path d="M 90,57 L 89,58 L 86,58 L 85,59 L 83,59 L 83,61 L 84,61 L 87,64 L 87,67 L 92,67 L 88,67 L 87,66 L 87,63 L 88,62 L 91,62 L 92,61 L 93,61 L 94,62 L 99,62 L 99,61 L 98,61 L 97,60 L 95,60 L 93,58 L 92,58 L 91,57 Z" fill="black"/>
<path d="M 43,57 L 42,58 L 40,58 L 44,58 Z" fill="black"/>
<path d="M 137,55 L 138,56 L 141,56 L 142,57 L 143,57 L 144,56 L 143,55 Z" fill="black"/>
<path d="M 115,55 L 117,57 L 122,57 L 123,58 L 122,57 L 120,57 L 119,56 L 118,56 L 117,55 L 116,56 Z" fill="black"/>
<path d="M 123,53 L 123,54 L 122,55 L 123,54 Z" fill="black"/>
<path d="M 29,53 L 27,55 L 26,55 L 25,56 L 24,56 L 22,58 L 21,58 L 19,60 L 18,60 L 14,64 L 14,65 L 12,67 L 13,67 L 14,68 L 13,67 L 13,66 L 14,65 L 15,66 L 17,64 L 18,64 L 23,59 L 24,59 L 26,57 L 25,56 L 26,55 L 27,55 Z" fill="black"/>
<path d="M 43,52 L 41,54 L 40,54 L 36,58 L 35,58 L 38,58 L 38,56 L 39,55 L 40,55 L 43,52 L 44,52 Z" fill="black"/>
<path d="M 135,51 L 135,52 Z" fill="black"/>
<path d="M 77,51 L 80,51 L 81,52 L 84,52 L 85,51 L 86,51 Z" fill="black"/>
<path d="M 48,51 L 49,51 Z" fill="black"/>
<path d="M 26,50 L 26,52 L 27,52 L 26,51 Z" fill="black"/>
<path d="M 12,49 L 13,49 Z" fill="black"/>
<path d="M 8,48 L 8,49 L 10,49 L 9,49 Z" fill="black"/>
<path d="M 59,46 L 58,47 L 57,47 L 56,48 L 56,49 L 55,50 L 52,50 L 51,51 L 51,52 L 46,57 L 46,58 L 48,58 L 49,59 L 51,59 L 52,60 L 53,60 L 54,61 L 56,61 L 57,62 L 58,62 L 60,64 L 60,68 L 61,69 L 70,69 L 71,68 L 68,68 L 64,64 L 64,63 L 63,62 L 63,61 L 62,60 L 62,57 L 63,56 L 63,55 L 64,54 L 65,55 L 65,57 L 65,56 L 67,54 L 68,55 L 69,54 L 70,55 L 71,55 L 72,56 L 72,59 L 72,58 L 73,57 L 73,56 L 75,54 L 76,55 L 76,56 L 78,56 L 79,57 L 79,58 L 80,58 L 79,57 L 79,56 L 80,55 L 81,56 L 85,56 L 86,55 L 90,55 L 91,54 L 94,54 L 95,53 L 99,53 L 100,52 L 104,52 L 105,51 L 107,51 L 108,50 L 110,50 L 111,49 L 114,49 L 115,48 L 117,48 L 118,49 L 118,50 L 119,50 L 118,49 L 118,48 L 119,47 L 116,47 L 115,48 L 111,48 L 110,49 L 109,49 L 108,50 L 106,50 L 105,51 L 102,51 L 101,52 L 98,52 L 97,53 L 92,53 L 91,54 L 85,54 L 84,55 L 81,55 L 80,54 L 79,55 L 78,55 L 74,51 L 73,51 L 72,50 L 61,50 L 60,49 L 58,49 L 57,48 L 58,47 L 61,47 L 61,46 Z" fill="black"/>
<path d="M 32,45 L 33,45 Z" fill="black"/>
<path d="M 36,44 L 36,45 L 35,46 L 35,50 L 36,50 Z" fill="black"/>
<path d="M 117,43 Z" fill="black"/>
<path d="M 106,43 L 107,44 L 107,46 L 107,44 Z" fill="black"/>
<path d="M 140,42 L 139,43 L 137,43 L 134,46 L 135,45 L 136,45 L 137,44 L 139,44 L 140,43 Z" fill="black"/>
<path d="M 42,42 L 44,44 L 43,45 L 45,45 Z" fill="black"/>
<path d="M 127,41 L 127,43 L 126,44 L 125,44 L 125,45 L 124,46 L 126,44 L 128,44 L 130,46 L 130,48 L 131,49 L 131,50 L 132,51 L 130,53 L 129,52 L 128,52 L 128,53 L 131,53 L 132,54 L 132,57 L 131,58 L 131,60 L 130,61 L 130,62 L 129,63 L 129,64 L 128,65 L 128,66 L 129,67 L 129,68 L 128,69 L 129,68 L 129,67 L 131,65 L 131,64 L 134,61 L 135,61 L 133,59 L 133,50 L 132,49 L 133,48 L 132,48 L 129,45 L 130,44 L 129,43 L 129,42 L 128,41 Z" fill="black"/>
<path d="M 11,37 L 12,38 L 12,39 L 14,39 L 16,41 L 17,41 L 16,40 L 15,40 L 13,38 L 12,38 Z" fill="black"/>
<path d="M 106,35 L 106,36 L 110,36 L 110,35 Z" fill="black"/>
<path d="M 132,33 L 131,34 L 130,34 L 130,35 L 128,37 L 130,37 L 130,36 L 131,35 L 131,34 Z" fill="black"/>
<path d="M 85,33 L 86,33 L 87,34 L 90,34 L 91,35 L 92,34 L 93,35 L 95,35 L 93,35 L 92,34 L 87,34 L 86,33 Z" fill="black"/>
<path d="M 80,33 Z" fill="black"/>
<path d="M 60,33 L 59,34 L 54,34 L 53,35 L 48,35 L 50,37 L 51,36 L 52,36 L 53,35 L 57,35 L 58,34 L 61,34 L 62,33 L 66,33 Z" fill="black"/>
<path d="M 37,33 L 36,34 L 32,34 L 31,35 L 29,35 L 28,36 L 27,36 L 26,37 L 25,37 L 23,39 L 22,39 L 20,41 L 20,42 L 18,44 L 18,45 L 18,44 L 24,38 L 25,38 L 26,37 L 27,37 L 28,36 L 30,36 L 31,35 L 35,35 L 36,34 L 40,34 L 39,33 Z" fill="black"/>
<path d="M 68,32 Z" fill="black"/>
<path d="M 19,28 L 21,30 L 21,31 L 23,33 L 23,34 L 24,35 L 24,34 L 23,33 L 23,32 Z" fill="black"/>
<path d="M 122,21 L 119,24 L 118,24 L 117,25 L 118,25 L 119,26 L 118,27 L 119,26 L 119,25 L 121,23 L 122,23 L 123,22 L 123,21 Z" fill="black"/>
<path d="M 49,20 L 48,21 L 48,24 L 49,25 L 49,27 L 50,28 L 50,29 L 51,30 L 54,30 L 55,29 L 55,24 L 54,23 L 54,21 L 53,20 Z" fill="black"/>
<path d="M 39,20 L 39,21 Z" fill="black"/>
<path d="M 30,20 L 32,22 L 33,22 L 34,23 L 35,23 L 34,22 L 33,22 L 32,21 L 31,21 Z" fill="black"/>
<path d="M 106,19 L 108,21 L 109,21 L 112,24 L 110,26 L 109,26 L 107,28 L 108,27 L 109,27 L 112,24 L 113,25 L 113,26 L 114,27 L 114,28 L 115,29 L 115,34 L 116,35 L 116,41 L 118,41 L 117,40 L 117,39 L 118,38 L 118,35 L 117,34 L 117,32 L 116,31 L 116,30 L 115,29 L 115,27 L 114,26 L 114,25 L 113,24 L 114,23 L 112,21 L 112,20 L 112,21 L 111,22 L 109,20 L 108,20 L 107,19 Z" fill="black"/>
<path d="M 92,19 L 92,21 L 91,22 L 91,24 L 90,25 L 90,27 L 89,28 L 90,28 L 90,27 L 92,25 L 93,25 L 94,26 L 94,30 L 94,24 L 97,21 L 98,21 L 98,20 L 97,20 L 93,24 L 92,23 L 92,21 L 93,20 L 93,19 Z" fill="black"/>
<path d="M 28,19 Z" fill="black"/>
<path d="M 85,17 L 84,18 L 84,24 L 83,25 L 83,28 L 84,27 L 84,23 L 85,22 Z" fill="black"/>
<path d="M 73,17 L 73,27 L 78,27 L 75,27 L 74,26 L 74,17 Z" fill="black"/>
<path d="M 62,17 L 61,18 L 60,18 L 60,20 L 61,21 L 61,26 L 62,27 L 62,28 L 62,24 L 63,23 L 65,23 L 66,24 L 66,25 L 67,26 L 67,27 L 67,24 L 66,23 L 66,21 L 67,20 L 67,19 L 65,17 Z" fill="black"/>
<path d="M 114,13 L 112,15 L 112,16 L 111,17 L 111,18 L 113,18 L 112,17 L 114,15 L 114,14 L 115,13 Z" fill="black"/>
<path d="M 39,10 L 39,11 L 43,15 L 43,16 L 42,17 L 42,19 L 43,20 L 43,23 L 43,20 L 42,19 L 42,17 L 43,16 L 43,15 L 42,14 L 42,13 Z" fill="black"/>
<path d="M 77,0 L 76,1 L 77,2 L 77,4 L 76,5 L 76,9 L 75,10 L 72,10 L 71,11 L 70,10 L 69,10 L 67,8 L 67,7 L 64,4 L 64,3 L 64,4 L 66,6 L 66,7 L 67,8 L 67,9 L 66,10 L 64,10 L 63,11 L 61,11 L 60,12 L 53,12 L 52,11 L 52,9 L 51,8 L 51,5 L 51,11 L 52,12 L 50,14 L 48,14 L 47,15 L 46,15 L 48,15 L 49,14 L 51,14 L 52,13 L 54,13 L 55,12 L 61,12 L 62,11 L 84,11 L 85,12 L 91,12 L 92,13 L 93,13 L 94,14 L 97,14 L 99,16 L 100,16 L 102,18 L 102,21 L 101,22 L 101,29 L 100,30 L 100,33 L 98,35 L 98,36 L 98,35 L 99,34 L 100,35 L 100,36 L 100,33 L 101,32 L 101,28 L 102,27 L 102,22 L 103,21 L 103,16 L 102,15 L 102,9 L 103,8 L 103,7 L 102,7 L 102,8 L 101,9 L 101,13 L 100,14 L 98,14 L 97,13 L 95,13 L 94,12 L 90,12 L 89,11 L 86,11 L 85,10 L 85,9 L 86,8 L 86,7 L 87,6 L 87,5 L 88,4 L 89,4 L 89,3 L 88,3 L 88,4 L 86,6 L 86,7 L 85,8 L 85,9 L 84,10 L 78,10 L 77,9 Z" fill="black"/>
</svg>
